<svg height="512" viewBox="0 0 53 60" width="512" xmlns="http://www.w3.org/2000/svg"><g id="Page-1" fill="none" fill-rule="evenodd"><g id="031---AI-Cloud"><g id="Icons_copy" transform="translate(1 1)"><path id="Path" d="m32.494 0c5.3730319.01102703 9.7233572 4.36895705 9.725 9.742v.024c2.616896.8911253 4.3776215 3.3475403 4.381 6.112v.217c3.28228 1.6037407 5.0246893 5.2594676 4.2033882 8.8190758s-3.9892616 6.0823756-7.6423882 6.0859242h-35.153c-3.55850839-.0086047-6.57098771-2.6285999-7.07304334-6.1515242-.50205563-3.5229244 1.65860385-6.880149 5.07304334-7.8824758.14554586-2.6944279 1.54398564-5.1653729 3.77901332-6.6772514 2.23502768-1.51187853 5.04891498-1.89035095 7.60398668-1.0227486 1.383666-1.94714626 3.6203262-3.10883981 6.009-3.121h.067c1.4675755-3.70292816 5.0438608-6.1374328 9.027-6.145z" fill="#f5f5f5"/><path id="Path" d="m46.594 16.1c0-.072 0-.145 0-.217-.0029403-2.7636706-1.7622887-5.2198463-4.378-6.112v-.024c.0092501-2.85077879-1.234098-5.56175035-3.4006193-7.41464295-2.1665212-1.8528926-5.0375402-2.66068661-7.8523807-2.20935705 4.7465302.73343906 8.2507186 4.81614104 8.256 9.619v.024c2.616896.8911253 4.3776215 3.3475403 4.381 6.112v.217c3.28228 1.6037407 5.0246893 5.2594676 4.2033882 8.8190758s-3.9892616 6.0823756-7.6423882 6.0859242h3c3.6479806-.0110471 6.8077347-2.5333929 7.6267844-6.0882546s-.9184228-7.2055417-4.1937844-8.8117454z" fill="#cfd8dc"/><path id="Path" d="m18 55.99v.01c-3.5555556 2.6666667-8.44444444 2.6666667-12 0v-.01c.00616346-2.4233141 1.46946907-4.6050161 3.70921853-5.5302251 2.23974947-.925209 4.81617607-.4122636 6.53078147 1.3002251 1.1305128 1.1167042 1.7647163 2.6409546 1.76 4.23z" fill="#ffdf00"/><path id="Path" d="m22 48c.0036407 3.1456569-1.4794049 6.1080406-4 7.99-.0104552-3.3077474-2.6922397-5.9850623-6-5.99 1.6568542 0 3-1.3431458 3-3s-1.3431458-3-3-3-3 1.3431458-3 3 1.3431458 3 3 3c-3.30980718-.0000046-5.99448365 2.6801974-6 5.99-3.76308032-2.8223139-5.05047768-7.8857077-3.09242533-12.162653 1.95805236-4.2769452 6.63215077-6.6110731 11.22753603-5.6067508 4.5953854 1.0043223 7.8695914 5.0755535 7.8648893 9.7794038z" fill="#02a9f4"/><path id="Path" d="m12 38c-.5024253.0040337-1.0038371.045818-1.5.125 3.3505615.5017093 6.2175004 2.6696036 7.6130316 5.756749 1.3955312 3.0871455 1.1288985 6.6715578-.7080316 9.518251.3919155.8071334.5953674 1.6927475.595 2.59 3.4439224-2.5806058 4.8489048-7.0762145 3.4873373-11.1586478-1.3615675-4.0824332-5.1838368-6.8346562-9.4873373-6.8313522z" fill="#0377bc"/><circle id="Oval" cx="12" cy="47" fill="#ffe0b2" r="3"/><path id="Path" d="m46 55.99v.01c-3.5555556 2.6666667-8.4444444 2.6666667-12 0v-.01c.0061635-2.4233141 1.4694691-4.6050161 3.7092185-5.5302251 2.2397495-.925209 4.8161761-.4122636 6.5307815 1.3002251 1.1305128 1.1167042 1.7647163 2.6409546 1.76 4.23z" fill="#e91e63"/><path id="Path" d="m50 48c.0036407 3.1456569-1.4794049 6.1080406-4 7.99-.0104552-3.3077474-2.6922397-5.9850623-6-5.99 1.6568542 0 3-1.3431458 3-3s-1.3431458-3-3-3-3 1.3431458-3 3 1.3431458 3 3 3c-3.3098072-.0000046-5.9944837 2.6801974-6 5.99-3.7630803-2.8223139-5.0504777-7.8857077-3.0924253-12.162653 1.9580523-4.2769452 6.6321507-6.6110731 11.227536-5.6067508 4.5953854 1.0043223 7.8695914 5.0755535 7.8648893 9.7794038z" fill="#02a9f4"/><path id="Path" d="m40 38c-.5024253.0040337-1.0038371.045818-1.5.125 3.3505615.5017093 6.2175004 2.6696036 7.6130316 5.756749 1.3955312 3.0871455 1.1288985 6.6715578-.7080316 9.518251.3919155.8071334.5953674 1.6927475.595 2.59 3.4439224-2.5806058 4.8489048-7.0762145 3.4873373-11.1586478-1.3615675-4.0824332-5.1838368-6.8346562-9.4873373-6.8313522z" fill="#0377bc"/><circle id="Oval" cx="40" cy="47" fill="#ffe0b2" r="3"/><g fill="#00bcd4"><circle id="Oval" cx="8" cy="24" r="2"/><circle id="Oval" cx="20" cy="24" r="2"/><circle id="Oval" cx="14" cy="15" r="2"/><circle id="Oval" cx="32.5" cy="8.5" r="3.5"/><circle id="Oval" cx="24.5" cy="15.5" r="2.5"/><circle id="Oval" cx="32" cy="24" r="2"/><circle id="Oval" cx="44" cy="24" r="2"/><circle id="Oval" cx="38" cy="16" r="2"/></g></g><g id="Icons" fill="#000" fill-rule="nonzero"><path id="Shape" d="m53 24.146c.0136822-3.1598698-1.6716674-6.0833575-4.413-7.655-.1422855-2.7920341-1.8365295-5.2690984-4.387-6.414-.2935478-4.89158974-3.8675982-8.96098186-8.6803838-9.88343244s-9.6382057 1.53704303-11.7196162 5.97343244c-2.2421027.16971964-4.3230902 1.22947847-5.779 2.943-2.6776059-.690551-5.5228778-.1958685-7.8102825 1.3579054-2.2874048 1.5537739-3.79586072 4.0164642-4.1407175 6.7600946-3.65866715 1.4212976-5.7878363 5.2452418-5.06904671 9.103904.71878959 3.8586621 4.08201701 6.6594855 8.00704671 6.668096h16.992c0 1.1045695-.8954305 2-2 2h-8c-1.8363969.0055472-3.4331075 1.2608124-3.872 3.044-4.53106238.352957-8.37637978 3.4609124-9.67179573 7.8171725s.22683858 9.0603641 3.82879573 11.8318275c.02505093.0213278.05143793.0410346.079.059 3.9392472 3.0163273 9.4167422 2.9982552 13.336-.044l.013-.01c3.5523564-2.7294108 5.0909748-7.3428021 3.8881188-11.6581303-1.2028559-4.3153281-4.9060796-7.4676067-9.3581188-7.9658697.3411924-.6561157 1.0174867-1.0695136 1.757-1.074h8c1.1531181-.003719 2.247792-.5079987 3-1.382.752208.8740013 1.8468819 1.378281 3 1.382h8c.7413129.0026337 1.4199725.4163002 1.762 1.074-4.450638.4979269-8.1531974 3.6482459-9.3573817 7.961719-1.2041844 4.3134731.3312178 8.9260642 3.8803817 11.657281.0250509.0213278.0514379.0410346.079.059 3.9392472 3.0163273 9.4167422 2.9982552 13.336-.044l.013-.01c3.6062575-2.769094 5.1325505-7.4745386 3.8383036-11.8331966s-5.1412124-7.4685833-9.6743036-7.8208034c-.4393428-1.7849933-2.0387366-3.0407464-3.877-3.044h-8c-1.1045695 0-2-.8954305-2-2h16.161c4.8836129-.0093745 8.8379061-3.9703782 8.839-8.854zm-44.95 32.363c.25149539-2.5490245 2.388633-4.4957626 4.95-4.509 2.5683418-.0052154 4.7165559 1.9495597 4.953 4.507-3.000571 1.98808-6.899429 1.98808-9.9 0zm2.95-8.509c0-1.1045695.8954305-2 2-2s2 .8954305 2 2-.8954305 2-2 2-2-.8954305-2-2zm11 1c-.0007346 2.2078974-.8173741 4.337642-2.293 5.98-.5805716-1.9043828-1.9410815-3.4734751-3.744-4.318 1.450395-1.5996254 1.3694294-4.0616547-.1829279-5.5625324s-4.0157167-1.4987978-5.5655374.0046991c-1.54982076 1.5034968-1.62662883 3.9656594-.1735347 5.5628333-1.80214604.8472343-3.1613295 2.4178705-3.741 4.323-2.67139946-2.9889913-3.04211341-7.3851347-.90898504-10.7792777 2.13312836-3.3941431 6.25506044-4.9667783 10.10691564-3.856078 3.8518552 1.1107002 6.5036126 4.6365602 6.5020694 8.6453557zm14.05 7.509c.2514954-2.5490245 2.388633-4.4957626 4.95-4.509 2.5683418-.0052154 4.7165559 1.9495597 4.953 4.507-3.000571 1.98808-6.899429 1.98808-9.9 0zm2.95-8.509c0-1.1045695.8954305-2 2-2s2 .8954305 2 2-.8954305 2-2 2-2-.8954305-2-2zm11 1c-.0007346 2.2078974-.8173741 4.337642-2.293 5.98-.5805716-1.9043828-1.9410815-3.4734751-3.744-4.318 1.450395-1.5996254 1.3694294-4.0616547-.1829279-5.5625324s-4.0157167-1.4987978-5.5655374.0046991c-1.5498208 1.5034968-1.6266288 3.9656594-.1735347 5.5628333-1.802146.8472343-3.1613295 2.4178705-3.741 4.323-2.6713995-2.9889913-3.0421134-7.3851347-.908985-10.7792777 2.1331283-3.3941431 6.2550604-4.9667783 10.1069156-3.856078 3.8518552 1.1107002 6.5036126 4.6365602 6.5020694 8.6453557zm-40.992-18c-3.05992848-.0092792-5.64950077-2.2625935-6.08157455-5.2918773-.43207379-3.0292839 1.42426018-5.9167281 4.35957455-6.7811227.40811746-.1183509.69687049-.4816984.72-.906.12767464-2.3824472 1.36328838-4.5677472 3.3389735-5.9052911 1.9756851-1.3375439 4.4635946-1.6730788 6.7230265-.9067089.417943.1421131.8796254-.0066331 1.136-.366 1.2110684-1.69999219 3.1717491-2.7066166 5.259-2.7.4102993.00007148.7790098-.25049309.93-.632 1.5415237-3.90177619 5.6434413-6.1523084 9.7624688-5.35621443 4.1190274.79609398 7.0869266 4.41302607 7.0635312 8.60821443.0000339.4285489.2731302.8094358.679.947 2.2134996.749849 3.7021612 2.8279401 3.7 5.165v.183c-.0131084.3941018.2066024.7591116.561.932 2.8678638 1.3971398 4.391896 4.588798 3.6755524 7.6974141-.7163437 3.1086162-3.4834676 5.3114285-6.6735524 5.3125859h-16.161v-5h2.184c.3881226 1.1031704 1.3833989 1.8790985 2.5479217 1.9863869 1.1645228.1072885 2.2848158-.4737304 2.8679662-1.4874166.5831503-1.0136863.522257-2.2742145-.1558879-3.2269703l2.756-3.395c.5208526.1631731 1.0791474.1631731 1.6 0l2.754 3.395c-.9010382 1.227797-.7814848 2.9272416.2825757 4.0167968 1.0640606 1.0895552 2.7601988 1.2493057 4.0089818.3775854s1.6835431-2.518957 1.0275964-3.8933984c-.6559468-1.3744414-2.2100015-2.0725241-3.6731539-1.6499838l-2.754-3.395c.8861666-1.2448589.6950518-2.956883-.4438096-3.9756861-1.1388613-1.0188032-2.8615195-1.0188032-4.0003808 0-1.1388614 1.0188031-1.3299762 2.7308272-.4438096 3.9756861l-2.758 3.395c-.8060402-.2449156-1.6791293-.1208161-2.385.339l-3.615-3.347c1.176966-1.0111291 1.5302201-2.6856026.862-4.086l2.21-1.89c.7626161.5582573 1.68289.8597625 2.628.861 2.4852814 0 4.5-2.0147186 4.5-4.5 0-2.48528137-2.0147186-4.5-4.5-4.5s-4.5 2.01471863-4.5 4.5c.005214.7461553.1981396 1.4789975.561 2.131l-2.224 1.9c-.5504939-.3456047-1.1870122-.5295955-1.837-.531-1.9329966 0-3.5 1.5670034-3.5 3.5s1.5670034 3.5 3.5 3.5c.1 0 .188-.021.283-.029l4.35 4.029h-6.317c-.4950196-1.4696792-2.0470762-2.301529-3.545-1.9l-2.878-4.31c.3919264-.514611.6050647-1.1431407.607-1.79 0-1.6568542-1.3431458-3-3-3s-3 1.3431458-3 3c.0019353.6468593.2150736 1.275389.607 1.79l-2.878 4.31c-1.42661834-.3655765-2.90895279.3508132-3.50888618 1.6957912-.59993339 1.3449781-.14261801 2.9265571 1.08252738 3.7438115 1.22514539.8172545 2.861058.6319994 3.8724265-.4385237 1.0113685-1.0705232 1.1034343-2.7143156.2179323-3.891079l2.878-4.31c.4768536.1333438.9811464.1333438 1.458 0l2.878 4.31c-.3919264.514611-.6050647 1.1431407-.607 1.79-.0027654 1.4594373 1.0474881 2.7080809 2.485822 2.9553873s2.8453257-.5788398 3.330178-1.9553873h2.184v5zm24.992-6c0 .5522847-.4477153 1-1 1s-1-.4477153-1-1 .4477153-1 1-1 1 .4477153 1 1zm5-7c-.5522847 0-1-.4477153-1-1s.4477153-1 1-1 1 .4477153 1 1-.4477153 1-1 1zm6 6c.5522847 0 1 .4477153 1 1s-.4477153 1-1 1-1-.4477153-1-1 .4477153-1 1-1zm-18-7.5c0 .8284271-.6715729 1.5-1.5 1.5s-1.5-.6715729-1.5-1.5.6715729-1.5 1.5-1.5 1.5.6715729 1.5 1.5zm4-7c-.0106639-1.21592014.847804-2.26632168 2.0415073-2.49794152 1.1937034-.23161985 2.3827135.4215 2.827564 1.55317286.4448506 1.13167287.0188623 2.41963426-1.0130352 3.06287836s-2.3758526.4585955-3.1960361-.4391097c-.002939-.0065332-.0062787-.0128786-.01-.019 0-.005-.01-.006-.014-.011-.4073965-.4528592-.6337968-1.0398625-.636-1.649zm-10 14.5c.5522847 0 1 .4477153 1 1s-.4477153 1-1 1-1-.4477153-1-1 .4477153-1 1-1zm-7-8c0-.5522847.4477153-1 1-1s1 .4477153 1 1-.4477153 1-1 1-1-.4477153-1-1zm-4 9c0 .5522847-.44771525 1-1 1s-1-.4477153-1-1 .44771525-1 1-1 1 .4477153 1 1z"/></g></g></g></svg>