<svg height="512" viewBox="0 0 58 47" width="512" xmlns="http://www.w3.org/2000/svg"><g id="Page-1" fill="none" fill-rule="evenodd"><g id="004---Computer-Brain"><path id="Path" d="m56 3v36.5h-54v-36.5c0-1.65685425 1.34314575-3 3-3h48c1.6568542 0 3 1.34314575 3 3z" fill="#90bae1"/><path id="Path" d="m53.68.08c-10.1.56-49.78 4.96-51.61 39.42h-.07v-36.5c0-1.65685425 1.34314575-3 3-3h48c.2289334.00134448.4570053.02817647.68.08z" fill="#b0d3f0"/><g fill="#3b97d3"><path id="Path" d="m22.426 16h-14.856c-.55228475 0-1-.4477153-1-1s.44771525-1 1-1h14.856c.5522847 0 1 .4477153 1 1s-.4477153 1-1 1z"/><path id="Path" d="m21.38 12h-9.38c-1.1045695 0-2-.8954305-2-2v-4c0-.55228475.4477153-1 1-1s1 .44771525 1 1v4h9.38c.5522847 0 1 .4477153 1 1s-.4477153 1-1 1z"/><path id="Path" d="m18.892 25h-10.892c-.55228475 0-1-.4477153-1-1s.44771525-1 1-1h10.892c.5522847 0 1 .4477153 1 1s-.4477153 1-1 1z"/><path id="Path" d="m11 34c-.5522847 0-1-.4477153-1-1v-4c0-1.1045695.8954305-2 2-2h8.14c.5522847 0 1 .4477153 1 1s-.4477153 1-1 1h-8.14v4c0 .5522847-.4477153 1-1 1z"/><path id="Path" d="m50 16h-10.148c-.5522847 0-1-.4477153-1-1s.4477153-1 1-1h10.148c.5522847 0 1 .4477153 1 1s-.4477153 1-1 1z"/><path id="Path" d="m46 12h-9.089c-.5522847 0-1-.4477153-1-1s.4477153-1 1-1h9.089v-4c0-.55228475.4477153-1 1-1s1 .44771525 1 1v4c0 1.1045695-.8954305 2-2 2z"/><path id="Path" d="m50 25h-9.62c-.5522847 0-1-.4477153-1-1s.4477153-1 1-1h9.62c.5522847 0 1 .4477153 1 1s-.4477153 1-1 1z"/><path id="Path" d="m47 34c-.5522847 0-1-.4477153-1-1v-4h-8.14c-.5522847 0-1-.4477153-1-1s.4477153-1 1-1h8.14c1.1045695 0 2 .8954305 2 2v4c0 .5522847-.4477153 1-1 1z"/></g><path id="Path" d="m58 41v1c0 2.7614237-2.2385763 5-5 5h-48c-1.32608245 0-2.59785201-.5267842-3.53553391-1.4644661-.93768189-.9376819-1.46446609-2.2094515-1.46446609-3.5355339v-1c.0032948-1.1032019.89679813-1.9967052 2-2h54c1.1032019.0032948 1.9967052.8967981 2 2z" fill="#547580"/><path id="Path" d="m42.9 23.38c.0640379.2619244.0975938.5303716.1.8.0009698 1.663381-1.2812534 3.0459142-2.94 3.17.5622894 1.0853632.5175936 2.3854453-.1179079 3.4296294-.6355015 1.0441842-1.7697247 1.6811683-2.9920921 1.6803706-.7595763 1.8168107-2.6949816 2.8459084-4.6259432 2.4597161s-3.3216828-2.0805154-3.3240568-4.0497161v-24.5s0-4.37 5.51-1.24c.7284641.42401032 1.4328769.88805478 2.11 1.39.01.01.02.01.03.02h.01c.9559715.34410045 1.6568125 1.1706357 1.84 2.17.031975.1715188.0487069.34553101.05.52.0002599.57032111-.1704163 1.127631-.49 1.6.0601734-.0016565.1203804.0016884.18.01 1.1310981.0953263 2.160788.6900249 2.8086112 1.6221167.6478231.9320919.8463065 2.1044962.5413888 3.1978833.8585638.7556047 1.3677009 1.8316981 1.4074416 2.9747164.0397407 1.1430184-.3934296 2.2518741-1.1974416 3.0652836l.01.01c.5327333.4256336.914802 1.011005 1.09 1.67z" fill="#ff5364"/><path id="Path" d="m42 39-3.121 3.121c-.5627232.5628932-1.326069.8790953-2.122.879h-15.514c-.795931.0000953-1.5592768-.3161068-2.122-.879l-3.121-3.121" fill="#3f5c6c"/><circle id="Oval" cx="4" cy="43" fill="#65ddb9" r="1"/><circle id="Oval" cx="8" cy="43" fill="#65ddb9" r="1"/><path id="Path" d="m14 44h-2c-.5522847 0-1-.4477153-1-1s.4477153-1 1-1h2c.5522847 0 1 .4477153 1 1s-.4477153 1-1 1z" fill="#3f5c6c"/><path id="Path" d="m38.55 9.23c.0002599.57032111-.1704163 1.127631-.49 1.6h-.01c-1.2649904.4602822-2.2658196 1.4501534-2.74 2.71-.1516384.3748601-.515631.6201595-.92.62-.1311833.0034547-.2613445-.0239476-.38-.08-.2458579-.0985113-.4416835-.2918845-.5432853-.5364815-.1016018-.2445969-.1004176-.519805.0032853-.7635185.8749743-2.1241214 2.7700592-3.65752019 5.03-4.07.031975.1715188.0487069.34553101.05.52z" fill="#df4d60"/><path id="Path" d="m42.9 23.38c-1.2011362.7836041-2.6058769 1.1973767-4.04 1.19-.5522847 0-1-.4477153-1-1s.4477153-1 1-1c1.0457624.0043164 2.0703863-.2943875 2.95-.86.5327333.4256336.914802 1.011005 1.09 1.67z" fill="#df4d60"/><path id="Path" d="m36.62 6.52c-1.1548299.13667327-2.1532295.86933909-2.63 1.93-.1610883.35835904-.5171006.58918021-.91.59-.1415698.00002825-.2814581-.03067895-.41-.09-.2426593-.10723827-.4321883-.30729543-.5261643-.5553923-.0939761-.24809686-.0845515-.52351525.0261643-.7646077.4886177-1.06479598 1.3097988-1.94212623 2.34-2.5.7284641.42401032 1.4328769.88805478 2.11 1.39z" fill="#df4d60"/><path id="Path" d="m32.212 22.033c-.1959441-.0213178-.3928996-.0320001-.59-.032-.5522847 0-1 .4477153-1 1s.4477153 1 1 1c.1252646.0000738.2504382.0067497.375.02.846546.0512429 1.5826805.5982427 1.876 1.394.2879721.8547648.0583482 1.7989471-.59 2.426-.8375651.8386034-1.3104666 1.9737825-1.316 3.159 0 .5522847.4477153 1 1 1s1-.4477153 1-1c.0064281-.6615791.273392-1.2939565.743-1.76 1.1890503-1.1717877 1.5963203-2.9239052 1.046-4.5-.5488781-1.5187972-1.934305-2.5770226-3.544-2.707z" fill="#df4d60"/><path id="Path" d="m38.781 16.36c-.1963576-.178433-.4555761-.271519-.7205892-.2587653-.2650131.0127536-.514095.1303013-.6924108.3267653-1.227562 1.2744273-3.2521583 1.3234814-4.54.11-.3923789-.3789722-1.0160848-.3735524-1.4018186.0121814s-.3911536 1.0094397-.0121814 1.4018186c.8508794.8453243 1.9735105 1.362181 3.169 1.459.3554821 1.0244421 1.1256797 1.8519872 2.122 2.28.3291609.1439718.710256.1003052.9983203-.1143893s.4388199-.5674168.394921-.9239944c-.043899-.3565777-.2757051-.662202-.6072413-.8006163-.3250163-.1426137-.60256-.3750565-.8-.67.8278752-.2793168 1.5711532-.7645121 2.16-1.41.3703923-.4093111.3390599-1.0413303-.07-1.412z" fill="#df4d60"/><path id="Path" d="m15.1 23.38c-.0640379.2619244-.0975938.5303716-.1.8-.0009698 1.663381 1.2812534 3.0459142 2.94 3.17-.5622894 1.0853632-.5175936 2.3854453.1179079 3.4296294.6355015 1.0441842 1.7697247 1.6811683 2.9920921 1.6803706.7595763 1.8168107 2.6949816 2.8459084 4.6259432 2.4597161s3.3216828-2.0805154 3.3240568-4.0497161v-24.5s0-4.37-5.51-1.24c-.7284641.42401032-1.4328769.88805478-2.11 1.39-.01.01-.02.01-.03.02h-.01c-.9559715.34410045-1.6568125 1.1706357-1.84 2.17-.031975.1715188-.0487069.34553101-.05.52-.0002599.57032111.1704163 1.127631.49 1.6-.0601734-.0016565-.1203804.0016884-.18.01-1.1310981.0953263-2.160788.6900249-2.8086112 1.6221167-.6478231.9320919-.8463065 2.1044962-.5413888 3.1978833-.8585638.7556047-1.3677009 1.8316981-1.4074416 2.9747164-.0397407 1.1430184.3934296 2.2518741 1.1974416 3.0652836l-.01.01c-.5327333.4256336-.914802 1.011005-1.09 1.67z" fill="#fb7b76"/><path id="Path" d="m19.45 9.23c-.0002599.57032111.1704163 1.127631.49 1.6h.01c1.2649904.4602822 2.2658196 1.4501534 2.74 2.71.1516384.3748601.515631.6201595.92.62.1311833.0034547.2613445-.0239476.38-.08.2458579-.0985113.4416835-.2918845.5432853-.5364815.1016018-.2445969.1004176-.519805-.0032853-.7635185-.8749743-2.1241214-2.7700592-3.65752019-5.03-4.07-.031975.1715188-.0487069.34553101-.05.52z" fill="#df4d60"/><path id="Path" d="m15.1 23.38c1.2011362.7836041 2.6058769 1.1973767 4.04 1.19.5522847 0 1-.4477153 1-1s-.4477153-1-1-1c-1.0457624.0043164-2.0703863-.2943875-2.95-.86-.5327333.4256336-.914802 1.011005-1.09 1.67z" fill="#df4d60"/><path id="Path" d="m21.38 6.52c1.1548299.13667327 2.1532295.86933909 2.63 1.93.1610883.35835904.5171006.58918021.91.59.1415698.00002825.2814581-.03067895.41-.09.2426593-.10723827.4321883-.30729543.5261643-.5553923.0939761-.24809686.0845515-.52351525-.0261643-.7646077-.4886177-1.06479598-1.3097988-1.94212623-2.34-2.5-.7284641.42401032-1.4328769.88805478-2.11 1.39z" fill="#df4d60"/><path id="Path" d="m25.788 22.033c.1959441-.0213178.3928996-.0320001.59-.032.5522847 0 1 .4477153 1 1s-.4477153 1-1 1c-.1252646.0000738-.2504382.0067497-.375.02-.846546.0512429-1.5826805.5982427-1.876 1.394-.2879721.8547648-.0583482 1.7989471.59 2.426.8375651.8386034 1.3104666 1.9737825 1.316 3.159 0 .5522847-.4477153 1-1 1s-1-.4477153-1-1c-.0064281-.6615791-.273392-1.2939565-.743-1.76-1.1890503-1.1717877-1.5963203-2.9239052-1.046-4.5.5488781-1.5187972 1.934305-2.5770226 3.544-2.707z" fill="#df4d60"/><path id="Path" d="m19.219 16.36c.1963576-.178433.4555761-.271519.7205892-.2587653.2650131.0127536.514095.1303013.6924108.3267653 1.227562 1.2744273 3.2521583 1.3234814 4.54.11.3923789-.3789722 1.0160848-.3735524 1.4018186.0121814s.3911536 1.0094397.0121814 1.4018186c-.8508794.8453243-1.9735105 1.362181-3.169 1.459-.3554821 1.0244421-1.1256797 1.8519872-2.122 2.28-.3291609.1439718-.710256.1003052-.9983203-.1143893s-.4388199-.5674168-.394921-.9239944c.043899-.3565777.2757051-.662202.6072413-.8006163.3250163-.1426137.60256-.3750565.8-.67-.8278752-.2793168-1.5711532-.7645121-2.16-1.41-.3703923-.4093111-.3390599-1.0413303.07-1.412z" fill="#df4d60"/><path id="Path" d="m30 13.729c-.5522847 0-1-.4477153-1-1-.0005511-.5017984-.4072016-.9084489-.909-.909-.5522847 0-1-.4477153-1-1s.4477153-1 1-1c1.6059109.00165359 2.9073464 1.3030891 2.909 2.909 0 .5522847-.4477153 1-1 1z" fill="#ff5364"/><path id="Path" d="m28 16.911c-.5522847 0-1-.4477153-1-1 .0011014-1.6064638 1.3025373-2.9087945 2.909-2.911.5522847 0 1 .4477153 1 1s-.4477153 1-1 1c-.5019601.0011017-.9084502.408039-.909.91.0002654.2653897-.1049743.5200006-.2925394.7077533-.1875652.1877527-.4420708.2932468-.7074606.2932467z" fill="#fb7b76"/><circle id="Oval" cx="11" cy="6" fill="#f0c419" r="2"/><circle id="Oval" cx="8" cy="15" fill="#f0c419" r="2"/><circle id="Oval" cx="11" cy="33" fill="#f0c419" r="2"/><circle id="Oval" cx="8" cy="24" fill="#f0c419" r="2"/><circle id="Oval" cx="47" cy="6" fill="#f0c419" r="2"/><circle id="Oval" cx="50" cy="15" fill="#f0c419" r="2"/><circle id="Oval" cx="47" cy="33" fill="#f0c419" r="2"/><circle id="Oval" cx="50" cy="24" fill="#f0c419" r="2"/></g></g></svg>